# Blender v3.1.2 OBJ File: 'pat.blend'
# www.blender.org
mtllib pat12.mtl
o PA_Cube.005
v -0.000000 0.431627 0.120530
v -0.000000 0.431627 0.095530
v -0.481289 -0.523930 0.028383
v -0.481289 -0.523930 0.003383
v 0.481289 -0.523930 0.028383
v 0.481289 -0.523930 0.003383
v -0.164909 -0.488539 0.028383
v 0.164909 -0.488539 0.028383
v -0.164909 -0.523930 0.003383
v 0.164909 -0.523930 0.003383
vt 0.614256 0.521978
vt 0.633342 0.523477
vt 0.633342 0.752887
vt 0.614257 0.751388
vt 0.469967 0.697909
vt 0.431789 0.521551
vt 0.450876 0.520051
vt 0.450876 0.749462
vt 0.431791 0.750961
vt 0.451035 0.936738
vt 0.462540 0.928977
vt 0.606830 0.982456
vt 0.595324 0.990217
vt 0.439370 0.753047
vt 0.450876 0.760808
vt 0.306586 0.814287
vt 0.295081 0.806526
vt 0.287499 0.575030
vt 0.606830 0.753047
vt 0.412860 0.752888
vt 0.268568 0.576957
vt 0.450876 0.990217
vt 0.451035 0.695982
vt 0.595324 0.520051
vn -0.8931 0.4498 0.0000
vn 0.0114 -0.1017 0.9948
vn 0.8931 0.4498 0.0000
vn -0.0456 -0.8154 0.5771
vn 0.0456 -0.8154 0.5771
vn -0.0114 -0.1017 0.9948
vn 0.0000 0.0960 -0.9954
vn -0.9742 -0.1841 0.1303
vn 0.9742 -0.1841 0.1303
usemtl Material.001
s off
f 1/1/1 2/2/1 4/3/1 3/4/1
f 1/1/2 3/4/2 7/5/2
f 5/6/3 6/7/3 2/8/3 1/9/3
f 8/10/4 10/11/4 6/12/4 5/13/4
f 3/14/5 4/15/5 9/16/5 7/17/5
f 8/18/6 5/6/6 1/9/6
f 10/11/7 2/19/7 6/12/7
f 8/18/8 1/9/8 2/20/8 10/21/8
f 4/15/7 2/22/7 9/16/7
f 1/1/9 7/5/9 9/23/9 2/24/9
o PA.001_Cube.014
v -0.000000 0.428088 0.120530
v -0.000000 0.428088 0.095530
v -0.164909 -0.527470 0.028383
v 0.164909 -0.527470 0.028383
v -0.164909 -0.527470 0.003383
v 0.164909 -0.527470 0.003383
v -0.000000 -0.569939 0.127970
v -0.000000 -0.527470 0.152970
vt 0.334571 0.275291
vt 0.410056 0.411086
vt 0.400970 0.422565
vt 0.319159 0.275937
vt 0.650956 0.337896
vt 0.661310 0.343641
vt 0.474097 0.330177
vt 0.331206 0.264453
vt 0.481537 0.320777
vt 0.668242 0.331144
vt 0.668242 0.084890
vn -0.9854 -0.1701 0.0000
vn 0.9854 -0.1701 0.0000
vn -0.5064 0.6572 -0.5582
vn 0.5064 0.6572 -0.5582
vn 0.5983 0.0260 0.8008
vn -0.5983 0.0260 0.8008
vn -0.6026 -0.0271 -0.7976
vn 0.6026 -0.0271 -0.7976
usemtl Material.001
s off
f 14/25/10 11/26/10 12/27/10 16/28/10
f 11/26/11 13/29/11 15/30/11 12/27/11
f 18/31/12 14/25/12 16/32/12 17/33/12
f 13/29/13 18/31/13 17/33/13 15/34/13
f 16/32/14 12/35/14 17/33/14
f 15/34/15 17/33/15 12/35/15
f 14/25/16 18/31/16 11/26/16
f 13/29/17 11/26/17 18/31/17
